<svg version="1" xmlns="http://www.w3.org/2000/svg" width="346.667" height="346.667" viewBox="0 0 260.000000 260.000000"><path d="M39.8 20.2c-.4.9-.3 219.8.1 219.9.3 0 22.7.1 49.6.1 43.2.1 69.6-.5 71.5-1.7.3-.2 2.5-.6 5-1s4.7-.8 5.1-1c.3-.2 2.1-.7 3.9-1 1.9-.3 6.5-1.9 10.2-3.5 23.2-9.7 34.6-26.7 35.1-52.5.6-27.5-10.1-45.4-32.8-55.2l-5-2.1 2.8-1.1c4.2-1.6 11.6-7 15.1-10.9 7.6-8.5 10.9-18.3 10.9-32.2.1-28-12.5-44.6-39.8-52.5-8.4-2.4-10-2.7-24-4.4-6.3-.8-107.3-1.6-107.7-.9zm100.1 40.3c9.9 3.3 14.5 10 14.5 21.5.1 9.6-2.1 14.3-8.7 18.7-5.8 3.9-10.4 4.6-32.6 4.6l-16.6.1-.2-23.5-.2-23.4 19.5.2c14.8.1 20.7.6 24.3 1.8zm4 85.1c8.3 2.2 14.7 7.4 17.8 14.4 2 4.6 2.4 17.3.7 23-2.7 9.2-11 15.6-22.9 17.7-2.7.5-13.5.9-24 .9l-19-.1-.2-28.8-.1-28.8 21.1.2c14.6.1 22.9.5 26.6 1.5z"/></svg>